<svg width="64" height="34" viewBox="0 0 64 34" fill="none" xmlns="http://www.w3.org/2000/svg">
<g clip-path="url(#clip0_473_481)">
<path d="M2.58292 17.316L2.29492 16.6154C4.90749 15.6165 7.53378 14.5269 10.0755 13.4749C10.9235 13.1235 11.7715 12.7721 12.6195 12.4251L12.9235 13.1191C12.0755 13.4683 11.2275 13.8175 10.3818 14.1689C7.83549 15.2231 5.20235 16.3127 2.58064 17.316H2.58292Z" fill="black"/>
<path d="M8.56934 17.9481L14.0551 15.7336L14.1419 15.9347L8.65619 18.1492L8.56934 17.9481Z" fill="black"/>
<path d="M7.02522 18.5708L1.5415 20.7855L1.62872 20.9874L7.11243 18.7727L7.02522 18.5708Z" fill="black"/>
<path d="M0.515114 21.2005L0.000488281 21.4084L0.0877038 21.6103L0.602329 21.4024L0.515114 21.2005Z" fill="black"/>
<path d="M25.5387 12.4538C24.4209 12.4538 23.5112 11.5742 23.5112 10.4957C23.5112 9.41718 24.4209 8.53757 25.5387 8.53757C26.6564 8.53757 27.5638 9.41718 27.5638 10.4957C27.5638 11.5742 26.6541 12.4538 25.5387 12.4538ZM25.5387 9.289C24.8507 9.289 24.2907 9.83047 24.2907 10.4935C24.2907 11.1565 24.8507 11.698 25.5387 11.698C26.2267 11.698 26.7867 11.1565 26.7867 10.4935C26.7867 9.83047 26.2267 9.289 25.5387 9.289ZM25.5387 11.5809C24.9192 11.5809 24.4141 11.0946 24.4141 10.4957C24.4141 9.89677 24.9192 9.40834 25.5387 9.40834C26.1581 9.40834 26.6609 9.89677 26.6609 10.4957C26.6609 11.0946 26.1581 11.5809 25.5387 11.5809ZM25.5387 10.162C25.3489 10.162 25.1935 10.3123 25.1935 10.4957C25.1935 10.6791 25.3489 10.8294 25.5387 10.8294C25.7284 10.8294 25.8815 10.6791 25.8815 10.4957C25.8815 10.3123 25.7261 10.162 25.5387 10.162Z" fill="black"/>
<path d="M25.8746 4.66769H25.0952V8.91327H25.8746V4.66769Z" fill="black"/>
<path d="M21.8786 5.84334L21.2817 6.32797L24.1053 9.57932L24.7022 9.09469L21.8786 5.84334Z" fill="black"/>
<path d="M19.5986 9.22785L19.4634 9.97006L23.7877 10.7066L23.9229 9.96436L19.5986 9.22785Z" fill="black"/>
<path d="M23.9077 11.1152L20.1055 13.2386L20.4953 13.8912L24.2975 11.7678L23.9077 11.1152Z" fill="black"/>
<path d="M24.657 12.0046L23.1553 15.9942L23.8877 16.2519L25.3895 12.2624L24.657 12.0046Z" fill="black"/>
<path d="M26.5591 11.9646L25.8267 12.2223L27.3284 16.2119L28.0608 15.9541L26.5591 11.9646Z" fill="black"/>
<path d="M27.253 11.01L26.8633 11.6627L30.6659 13.7855L31.0556 13.1328L27.253 11.01Z" fill="black"/>
<path d="M31.477 9.10545L27.1528 9.84268L27.2882 10.5849L31.6123 9.84764L31.477 9.10545Z" fill="black"/>
<path d="M29.1212 5.76698L26.2988 9.01929L26.8959 9.50372L29.7183 6.25141L29.1212 5.76698Z" fill="black"/>
<path d="M19.6826 5.63573L18.7637 4.39587L18.7134 4.38703C18.4917 4.33619 18.302 4.22127 18.1603 4.05772C17.7946 3.63781 17.8517 3.00572 18.2883 2.6499C18.7271 2.29407 19.3809 2.34932 19.7466 2.77366C19.8929 2.94384 19.9751 3.14717 19.9843 3.36375V3.4168L21.0883 4.49753L19.6849 5.63573H19.6826ZM19.3146 3.83671L19.8266 4.5351L19.9363 4.4467L19.3146 3.83892V3.83671ZM18.8734 3.64886L19.2026 3.68201V3.37701C19.2026 3.34165 19.182 3.29524 19.1477 3.25546C19.0586 3.15159 18.8963 3.13833 18.7866 3.22452C18.6791 3.31292 18.6654 3.46763 18.7546 3.5715C18.7866 3.60686 18.8254 3.63339 18.8734 3.64665V3.64886Z" fill="black"/>
<path d="M17.6733 10.3896L16.1533 10.0051L16.103 10.0338C15.9019 10.1311 15.6779 10.1642 15.4584 10.1266C14.8984 10.0316 14.5213 9.51223 14.6196 8.96855C14.6676 8.70333 14.8184 8.47349 15.0447 8.32099C15.271 8.16849 15.5453 8.10882 15.8173 8.15523C16.0367 8.1928 16.2333 8.29668 16.3887 8.45359L16.4299 8.50001L17.9933 8.64145L17.6733 10.3852V10.3896ZM16.2036 9.24039L17.0539 9.45476L17.079 9.31995L16.2059 9.24039H16.2036ZM15.6367 8.89561C15.5864 8.89561 15.5339 8.91108 15.4904 8.93981C15.4333 8.97739 15.3967 9.03485 15.3853 9.10115C15.3624 9.23376 15.4539 9.36415 15.5933 9.38625C15.639 9.39509 15.687 9.38846 15.7327 9.37078L16.0047 9.19176L15.815 8.96855C15.7876 8.94202 15.7419 8.91108 15.6802 8.90003C15.6664 8.89782 15.6504 8.89561 15.6367 8.89561Z" fill="black"/>
<path d="M17.0381 16.5889C16.6793 16.5889 16.3318 16.4099 16.1398 16.0895C15.8541 15.6099 16.0255 14.9977 16.5193 14.7214C16.7113 14.6131 16.933 14.5711 17.157 14.5976L17.2164 14.6065L18.5055 13.7423L19.4221 15.2761L18.0004 15.9347L17.9821 15.9834C17.893 16.1823 17.7444 16.3436 17.5547 16.4519C17.3901 16.5425 17.2118 16.5867 17.0358 16.5867L17.0381 16.5889ZM17.0313 15.3424C16.997 15.3424 16.9535 15.3491 16.9101 15.3734C16.7867 15.4419 16.7455 15.5944 16.8141 15.7137C16.885 15.8309 17.0404 15.8707 17.1638 15.8021C17.2027 15.78 17.237 15.7469 17.2598 15.7027L17.349 15.3955L17.0541 15.3424C17.0541 15.3424 17.0381 15.3424 17.0313 15.3424ZM18.2564 14.8275L17.5364 15.3093L18.3273 14.9468L18.2564 14.8275Z" fill="black"/>
<path d="M22.2949 20.7395C22.176 20.7395 22.0571 20.7196 21.9406 20.6798C21.4057 20.4897 21.1269 19.9151 21.3211 19.3979C21.3989 19.1946 21.5383 19.0244 21.728 18.9051L21.7806 18.8742L22.1966 17.4111L23.9154 18.0166L23.2617 19.3979L23.2846 19.4532C23.3486 19.6632 23.344 19.8797 23.2663 20.0831C23.1726 20.3328 22.9829 20.5339 22.7337 20.6466C22.5943 20.7107 22.4457 20.7417 22.2949 20.7417V20.7395ZM22.144 19.5394C22.1006 19.5681 22.0686 19.6079 22.0526 19.6521C22.0046 19.7803 22.0731 19.9217 22.2057 19.9681C22.2697 19.9902 22.3383 19.988 22.4 19.9593C22.4617 19.9306 22.5074 19.882 22.5303 19.8201C22.5463 19.7759 22.5509 19.7295 22.5394 19.6853L22.4023 19.3935L22.1417 19.5372L22.144 19.5394ZM22.7246 18.3968L22.4914 19.2145L22.8571 18.4432L22.7246 18.3968Z" fill="black"/>
<path d="M29.0812 20.6489C28.6583 20.6489 28.2606 20.3969 28.1075 19.9903C28.0321 19.7913 28.0252 19.5748 28.0892 19.3648L28.1121 19.3029L27.4561 17.926L29.1795 17.3205L29.6023 18.7902L29.6458 18.8145C29.8378 18.9338 29.9772 19.1062 30.0526 19.3095C30.1463 19.5593 30.1349 19.8311 30.0161 20.072C29.8995 20.3151 29.6915 20.4986 29.4332 20.5892C29.3166 20.629 29.1978 20.6489 29.0812 20.6489ZM28.8321 19.588C28.8183 19.6388 28.8206 19.6875 28.8389 19.7339C28.8869 19.8621 29.0332 19.9284 29.1681 19.882C29.2321 19.8599 29.2823 19.8134 29.3121 19.7538C29.3418 19.6941 29.3441 19.6256 29.3212 19.5637C29.3052 19.5195 29.2778 19.4841 29.2389 19.4554L28.9418 19.3162L28.8366 19.5858L28.8321 19.588ZM28.5166 18.3548L28.8823 19.1239L28.6492 18.3062L28.5143 18.3526L28.5166 18.3548Z" fill="black"/>
<path d="M34.2149 16.3635C34.0412 16.3635 33.8629 16.3215 33.7006 16.2309C33.504 16.1204 33.3578 15.9568 33.2686 15.7579L33.248 15.7027L31.8286 15.0529L32.7452 13.5191L34.0389 14.3832L34.096 14.3722C34.32 14.3457 34.5418 14.3899 34.7338 14.4982C34.9738 14.6308 35.1429 14.8474 35.216 15.1059C35.2869 15.3645 35.2503 15.6342 35.1132 15.8662C34.9235 16.1867 34.5738 16.3657 34.2149 16.3657V16.3635ZM33.9909 15.4728C34.0069 15.506 34.0389 15.5502 34.0938 15.5811C34.2126 15.6474 34.3703 15.6076 34.4412 15.4883C34.4755 15.4308 34.4846 15.3645 34.4663 15.3004C34.448 15.2363 34.4069 15.1833 34.3475 15.1502C34.3063 15.1258 34.2606 15.117 34.2126 15.1192L33.8926 15.1966L33.9932 15.4706L33.9909 15.4728ZM32.928 14.7236L33.7235 15.0883L32.9989 14.6043L32.928 14.7236Z" fill="black"/>
<path d="M33.2686 10.1332L32.9531 8.38948L34.5234 8.2392L34.5554 8.20162C34.7108 8.0425 34.9074 7.94083 35.1246 7.90326C35.3966 7.85685 35.6708 7.91431 35.8994 8.06902C36.1257 8.22372 36.2766 8.45136 36.3246 8.71657C36.4228 9.25805 36.0457 9.77742 35.4857 9.87466C35.2663 9.91223 35.0446 9.87908 34.8434 9.78184L34.7863 9.7509L33.2686 10.1355V10.1332ZM33.8674 9.06356L33.8926 9.19837L34.7383 8.984L33.8674 9.06356ZM35.2023 9.11218C35.2388 9.12765 35.2891 9.14091 35.3508 9.13207C35.488 9.10776 35.5817 8.97958 35.5588 8.84476C35.5474 8.78067 35.5108 8.7232 35.4537 8.68563C35.3966 8.64806 35.3303 8.63259 35.264 8.64585C35.216 8.65469 35.1748 8.67458 35.1383 8.70773L34.9463 8.96411L35.2046 9.11439L35.2023 9.11218Z" fill="black"/>
<path d="M31.1041 5.46997L29.7007 4.33177L30.8047 3.24883V3.21347V3.18915C30.8184 2.97036 30.9007 2.76924 31.0424 2.6079C31.4104 2.18577 32.0641 2.13052 32.5007 2.48414C32.9373 2.83775 32.9944 3.46984 32.6287 3.89196C32.4893 4.0533 32.2973 4.16822 32.0778 4.22127L32.0115 4.23232L31.1041 5.46997ZM30.8481 4.27873L30.9578 4.36713L31.4675 3.67316L30.8504 4.27873H30.8481ZM31.5841 3.21568L31.607 3.53393L31.9018 3.48752C31.9407 3.47647 31.991 3.45437 32.0298 3.41016C32.1213 3.30629 32.1053 3.14937 31.9978 3.06097C31.8904 2.97257 31.7281 2.98804 31.6367 3.09191C31.607 3.12506 31.5887 3.16705 31.5818 3.21568H31.5841Z" fill="black"/>
<path d="M26.4644 3.15601H24.6335L24.7592 1.63989L24.7204 1.59568C24.5855 1.42109 24.5146 1.21334 24.5146 0.99896C24.5146 0.731539 24.6221 0.481799 24.8186 0.291732C25.0129 0.103874 25.2735 0 25.5501 0C26.1192 0 26.5832 0.448648 26.5855 0.99896C26.5855 1.21555 26.5146 1.42109 26.3798 1.59568L26.3386 1.6421L26.4644 3.1538V3.15601ZM25.4792 2.40237H25.6209L25.5501 1.55369L25.4792 2.40237ZM25.3352 1.12936L25.5661 1.35699L25.7626 1.13599C25.7924 1.09399 25.8084 1.04537 25.8084 0.99675C25.8084 0.861935 25.6941 0.75143 25.5524 0.75143C25.4838 0.75143 25.4198 0.777951 25.3718 0.824363C25.3238 0.870775 25.2964 0.932657 25.2964 0.99896C25.2964 1.04537 25.3101 1.08957 25.3352 1.12936Z" fill="black"/>
<path d="M25.5386 18.8985C20.8391 18.8985 17.0151 15.201 17.0151 10.657C17.0151 6.1131 20.8391 2.41562 25.5386 2.41562C30.238 2.41562 34.0597 6.1131 34.0597 10.657C34.0597 15.201 30.238 18.8985 25.5386 18.8985ZM25.5386 3.16926C21.2689 3.16926 17.7946 6.52859 17.7946 10.657C17.7946 14.7855 21.2689 18.1448 25.5386 18.1448C29.8083 18.1448 33.2803 14.7855 33.2803 10.657C33.2803 6.52859 29.8083 3.16926 25.5386 3.16926ZM25.5386 16.8652C21.998 16.8652 19.118 14.0805 19.118 10.657C19.118 7.23361 21.998 4.4489 25.5386 4.4489C29.0791 4.4489 31.9568 7.23361 31.9568 10.657C31.9568 14.0805 29.0768 16.8652 25.5386 16.8652ZM25.5386 5.20254C22.4277 5.20254 19.8951 7.64911 19.8951 10.657C19.8951 13.665 22.4254 16.1115 25.5386 16.1115C28.6517 16.1115 31.1797 13.665 31.1797 10.657C31.1797 7.64911 28.6494 5.20254 25.5386 5.20254Z" fill="black"/>
<path d="M44.843 14.1136C36.3036 14.1136 29.0122 18.1625 26.123 23.8689C29.0099 29.5732 36.3036 33.6243 44.843 33.6243C53.3825 33.6243 60.6762 29.5732 63.5653 23.8689C60.6762 18.1647 53.3825 14.1136 44.843 14.1136Z" fill="white"/>
<path d="M35.3643 23.8667C35.3643 18.8034 39.6088 14.6993 44.8431 14.6993C50.0774 14.6993 54.3243 18.8034 54.3243 23.8667C54.3243 28.93 50.082 33.0342 44.8431 33.0342C39.6043 33.0342 35.3643 28.93 35.3643 23.8667Z" fill="white"/>
<path d="M44.8433 33.4121C39.4011 33.4121 34.9736 29.1312 34.9736 23.8689C34.9736 18.6067 39.4011 14.3258 44.8433 14.3258C50.2856 14.3258 54.7131 18.6067 54.7131 23.8689C54.7131 29.1312 50.2856 33.4121 44.8433 33.4121ZM44.8433 15.0772C39.8308 15.0772 35.7531 19.02 35.7531 23.8667C35.7531 28.7135 39.8308 32.6585 44.8433 32.6585C49.8559 32.6585 53.9336 28.7157 53.9336 23.8667C53.9336 19.0178 49.8559 15.0772 44.8433 15.0772Z" fill="black"/>
<path d="M44.8433 34C40.6444 34 36.6101 33.0364 33.177 31.2153C29.8078 29.4273 27.2478 26.9432 25.7735 24.0325L25.689 23.8667L25.7735 23.701C27.2455 20.7925 29.8055 18.3084 33.177 16.5204C36.6101 14.6993 40.6444 13.7357 44.8433 13.7357C49.0421 13.7357 53.0787 14.6993 56.5095 16.5204C59.8787 18.3084 62.441 20.7925 63.913 23.701L63.9975 23.8667L63.913 24.0325C62.4387 26.9432 59.8787 29.4251 56.5095 31.2153C53.0764 33.0364 49.0421 34 44.8433 34ZM26.5598 23.8667C29.5084 29.4848 36.825 33.2463 44.8433 33.2463C52.8615 33.2463 60.1804 29.4848 63.129 23.8667C60.1804 18.2509 52.8615 14.4893 44.8433 14.4893C36.825 14.4893 29.5061 18.2509 26.5598 23.8667Z" fill="black"/>
<path d="M27.6456 25.9619L26.9302 25.6613C29.7462 19.3891 37.737 14.5755 45.9313 14.2153C49.0467 14.076 51.7462 14.7413 54.201 15.4772L53.9702 16.1977C51.2113 15.3689 48.793 14.8429 45.9656 14.9689C38.0547 15.3181 30.3496 19.9416 27.6433 25.9641L27.6456 25.9619Z" fill="black"/>
<path d="M47.5177 19.4908L44.8457 23.8667V18.7857C41.9451 18.7857 39.5908 21.0621 39.5908 23.8667C39.5908 26.6713 41.9451 28.9477 44.8457 28.9477C47.7462 28.9477 50.1005 26.6735 50.1005 23.8667C50.1005 22.0036 49.0628 20.3748 47.5177 19.4908Z" fill="#076189"/>
<path d="M44.8568 30.718C42.4042 30.718 40.018 29.4892 38.7082 27.2946C36.754 24.0237 37.9174 19.8223 41.3002 17.9326L41.6911 18.5846C38.6808 20.2665 37.6454 24.0038 39.3848 26.9167C41.122 29.8296 44.9894 30.8307 48.002 29.1488L48.3905 29.8008C47.2774 30.4219 46.0591 30.718 44.8568 30.718Z" fill="black"/>
<path d="M49.4443 29.0803L48.9414 28.5035C49.2408 28.2604 49.5151 27.9863 49.7597 27.6924L50.3677 28.1631C50.0911 28.4969 49.7803 28.8041 49.442 29.0803H49.4443Z" fill="black"/>
</g>
<defs>
<clipPath id="clip0_473_481">
<rect width="64" height="34" fill="white"/>
</clipPath>
</defs>
</svg>
