<svg width="53" height="27" viewBox="0 0 53 27" fill="none" xmlns="http://www.w3.org/2000/svg">
<g clip-path="url(#clip0_473_521)">
<path d="M5.96955 6.79379C5.72315 6.2396 5.586 5.63956 5.586 5.00962C5.58832 2.24267 8.20345 0 11.4299 0C14.0474 0 16.2627 1.47717 17.0066 3.51251C17.6993 2.67725 18.8337 2.13103 20.1192 2.13103C22.2252 2.13103 23.9338 3.59624 23.9338 5.40234C23.9338 5.87479 23.8152 6.32332 23.606 6.72999H25.7399C27.1789 6.72999 28.3481 7.73072 28.3481 8.96668C28.3481 10.2026 27.1812 11.2014 25.7399 11.2014H6.59021C5.15131 11.2014 3.98438 10.2006 3.98438 8.96668C3.98438 7.91611 4.83052 7.033 5.96955 6.79379Z" fill="#076189"/>
<path d="M2.28023 16.7333L2.02686 16.1851C4.33282 15.4016 6.65273 14.5504 8.89593 13.7271C9.64444 13.452 10.393 13.1769 11.1415 12.9038L11.4111 13.446C10.6626 13.7191 9.91409 13.9922 9.16791 14.2673C6.92006 15.0927 4.5955 15.9459 2.28256 16.7313L2.28023 16.7333Z" fill="black"/>
<path d="M7.56396 17.227L12.406 15.4953L12.4827 15.6528L7.64067 17.3864L7.56396 17.227Z" fill="black"/>
<path d="M6.20322 17.7174L1.3623 19.4514L1.43933 19.6096L6.28025 17.8756L6.20322 17.7174Z" fill="black"/>
<path d="M0.455416 19.7771L0.000976562 19.9399L0.0777366 20.0975L0.532176 19.9347L0.455416 19.7771Z" fill="black"/>
<path d="M33.5804 8.14935C24.8749 8.14935 17.4433 11.8114 14.498 16.9685C17.4433 22.1276 24.8749 25.7877 33.5804 25.7877C42.2859 25.7877 49.7175 22.1256 52.6627 16.9685C49.7175 11.8114 42.2859 8.14935 33.5804 8.14935Z" fill="white"/>
<path d="M23.915 16.9685C23.915 12.3915 28.2434 8.68161 33.5806 8.68161C38.9178 8.68161 43.2461 12.3935 43.2461 16.9685C43.2461 21.5436 38.9201 25.2574 33.5806 25.2574C28.2411 25.2574 23.915 21.5475 23.915 16.9685Z" fill="#076189"/>
<path d="M33.5804 26.0468C29.3148 26.0468 25.219 25.1797 21.7321 23.539C18.315 21.9303 15.7185 19.6976 14.2238 17.0821L14.1587 16.9685L14.2238 16.8549C15.7161 14.2394 18.3127 12.0067 21.7321 10.398C25.2166 8.75736 29.3148 7.8902 33.5804 7.8902C37.846 7.8902 41.9418 8.75736 45.4264 10.398C48.8435 12.0067 51.44 14.2394 52.9347 16.8549L52.9998 16.9685L52.9347 17.0821C51.4423 19.6976 48.8458 21.9303 45.4264 23.539C41.9418 25.1797 37.846 26.0468 33.5804 26.0468ZM14.8351 16.9685C17.8431 22.0938 25.3515 25.5285 33.5804 25.5285C41.8093 25.5285 49.3177 22.0938 52.3257 16.9685C49.3177 11.8433 41.8093 8.4085 33.5804 8.4085C25.3515 8.4085 17.8431 11.8433 14.8351 16.9685Z" fill="black"/>
<path d="M16.0395 18.7527L15.4839 18.5454C16.8321 15.8821 19.4333 13.3982 22.8086 11.5482C26.3605 9.60261 30.4703 8.48626 34.6917 8.32279C37.8555 8.1972 40.5961 8.79724 43.0904 9.45908L42.9114 9.95545C40.0917 9.2059 37.6207 8.72747 34.7196 8.8411C30.6052 9.00257 26.5999 10.089 23.1363 11.9868C19.861 13.7809 17.3412 16.1831 16.0395 18.7527Z" fill="black"/>
<path d="M40.2541 17.0164C40.2541 20.2339 37.2206 22.8373 33.4711 22.8373C29.7215 22.8373 26.688 20.2339 26.688 17.0164C26.688 13.7989 29.7239 11.2014 33.4711 11.2014C37.2183 11.2014 40.2541 13.8089 40.2541 17.0164Z" fill="white"/>
<path d="M36.8557 17.0164C36.8557 18.6211 35.3401 19.9209 33.4711 19.9209C31.6022 19.9209 30.0889 18.6211 30.0889 17.0164C30.0889 15.4116 31.6022 14.1198 33.4711 14.1198C35.3401 14.1198 36.8557 15.4176 36.8557 17.0164Z" fill="#076189"/>
<path d="M40.9538 10.1408L40.5005 8.21314L43.9106 5.28671L44.3639 7.21441L40.9538 10.1408Z" fill="#076189"/>
<path d="M41.4185 10.5356L43.6686 10.9263L47.0741 8.00184L44.8286 7.61111L41.4185 10.5356Z" fill="#076189"/>
<path d="M33.8361 17.1878C33.6618 17.3413 33.3759 17.3413 33.1992 17.1878C33.0202 17.0343 33.0202 16.7911 33.1992 16.6396L44.8685 6.63032C45.0475 6.48081 45.3357 6.48081 45.5101 6.63032C45.689 6.78183 45.689 7.02702 45.5101 7.17853L33.8361 17.1878Z" fill="black"/>
<g style="mix-blend-mode:multiply">
<path d="M43.5619 16.5001H33.5431C33.2967 16.5001 33.0921 16.6754 33.0968 16.8866C33.0968 17.1019 33.2967 17.2752 33.5431 17.2732H43.4085C43.4294 17.0122 43.4806 16.7531 43.5619 16.5001Z" fill="#C6C6C6"/>
</g>
</g>
<defs>
<clipPath id="clip0_473_521">
<rect width="53" height="26.0468" fill="white"/>
</clipPath>
</defs>
</svg>
